<svg width="20" height="13" viewBox="0 0 20 13" fill="none" xmlns="http://www.w3.org/2000/svg">
<path fill-rule="evenodd" clip-rule="evenodd" d="M20 1.19398C20 0.534565 19.5025 0 18.8889 0H17.7778C17.1641 0 16.6667 0.534565 16.6667 1.19398V11.5419C16.6667 12.2013 17.1641 12.7358 17.7778 12.7358H18.8889C19.5025 12.7358 20 12.2013 20 11.5419V1.19398ZM12.2561 2.54717H13.3672C13.9809 2.54717 14.4783 3.09456 14.4783 3.76981V11.5132C14.4783 12.1884 13.9809 12.7358 13.3672 12.7358H12.2561C11.6425 12.7358 11.145 12.1884 11.145 11.5132V3.76981C11.145 3.09456 11.6425 2.54717 12.2561 2.54717ZM7.74386 5.30659H6.63275C6.0191 5.30659 5.52164 5.86095 5.52164 6.5448V11.4976C5.52164 12.1815 6.0191 12.7358 6.63275 12.7358H7.74386C8.35751 12.7358 8.85497 12.1815 8.85497 11.4976V6.5448C8.85497 5.86095 8.35751 5.30659 7.74386 5.30659ZM2.22222 7.85377H1.11111C0.497461 7.85377 0 8.40021 0 9.07429V11.5153C0 12.1894 0.497461 12.7358 1.11111 12.7358H2.22222C2.83587 12.7358 3.33333 12.1894 3.33333 11.5153V9.07429C3.33333 8.40021 2.83587 7.85377 2.22222 7.85377Z" fill="black"/>
</svg>
