<svg width="18" height="13" viewBox="0 0 18 13" fill="none" xmlns="http://www.w3.org/2000/svg">
<path fill-rule="evenodd" clip-rule="evenodd" d="M9.00049 2.58978C11.6121 2.58989 14.1239 3.55814 16.0167 5.29442C16.1592 5.42846 16.387 5.42677 16.5274 5.29062L17.8899 3.96389C17.961 3.89484 18.0006 3.8013 18 3.70398C17.9994 3.60666 17.9586 3.51358 17.8867 3.44533C12.9188 -1.14844 5.08138 -1.14844 0.113467 3.44533C0.0415031 3.51352 0.000671801 3.60658 8.21575e-06 3.7039C-0.00065537 3.80122 0.0389034 3.89479 0.109931 3.96389L1.47278 5.29062C1.61307 5.42698 1.84107 5.42867 1.98351 5.29442C3.87652 3.55803 6.38859 2.58977 9.00049 2.58978ZM8.99697 7.02137C10.4223 7.02129 11.7967 7.55865 12.8532 8.52905C12.9961 8.66677 13.2212 8.66379 13.3605 8.52232L14.7122 7.13695C14.7834 7.06429 14.8229 6.96571 14.8219 6.86327C14.8208 6.76084 14.7794 6.66309 14.7067 6.59191C11.4895 3.55631 6.50718 3.55631 3.28993 6.59191C3.21726 6.66309 3.17579 6.76089 3.17484 6.86335C3.17389 6.96582 3.21352 7.06439 3.28486 7.13695L4.63621 8.52232C4.7755 8.66379 5.0006 8.66677 5.1435 8.52905C6.1993 7.55929 7.57263 7.02197 8.99697 7.02137ZM11.6478 9.95481C11.6498 10.0654 11.6109 10.1721 11.5402 10.2496L9.25458 12.8272C9.18758 12.903 9.09623 12.9456 9.00091 12.9456C8.9056 12.9456 8.81425 12.903 8.74725 12.8272L6.46121 10.2496C6.39059 10.172 6.35174 10.0653 6.35384 9.95472C6.35593 9.84409 6.39878 9.73933 6.47227 9.66518C7.93198 8.2855 10.0698 8.2855 11.5296 9.66518C11.603 9.73939 11.6458 9.84418 11.6478 9.95481Z" fill="black"/>
</svg>
